<svg width="42.000000" height="42.000000" viewBox="0 0 42 42" fill="none" xmlns="http://www.w3.org/2000/svg" xmlns:xlink="http://www.w3.org/1999/xlink">
	<desc>
			Created with Pixso.
	</desc>
	<defs/>
	<path id="Vector" d="M34.12 42L7.87 42C5.78 42 3.78 41.17 2.3 39.69C0.82 38.21 0 36.21 0 34.12L0 7.87C0 5.78 0.82 3.78 2.3 2.3C3.78 0.82 5.78 0 7.87 0L34.12 0C36.21 0 38.21 0.82 39.69 2.3C41.17 3.78 42 5.78 42 7.87L42 34.12C42 36.21 41.17 38.21 39.69 39.69C38.21 41.17 36.21 42 34.12 42Z" fill="#F4F6F8" fill-opacity="1.000000" fill-rule="nonzero"/>
	<path id="Vector" d="M18.03 21.65L11.35 21.66L11.94 15.34C12 14.75 12.27 14.19 12.72 13.79C13.16 13.38 13.74 13.16 14.34 13.16L15.13 13.16C14.96 13.72 14.87 14.31 14.87 14.92C14.87 17.64 16.67 20.16 18.03 21.65ZM22.21 23.4L16.59 31.5L13.08 31.5C12.39 31.5 11.75 31.21 11.29 30.71C10.84 30.21 10.62 29.54 10.68 28.86L11.19 23.41L20.01 23.4L22.21 23.4ZM23.97 21.65C25.32 20.16 27.12 17.64 27.12 14.92C27.12 14.31 27.03 13.71 26.87 13.16L27.65 13.16C28.91 13.16 29.93 14.1 30.05 15.34L30.64 21.64L23.97 21.65ZM30.8 23.39L24.34 23.4L18.72 31.5L28.92 31.5C29.25 31.5 29.58 31.43 29.89 31.29C30.2 31.15 30.47 30.96 30.7 30.71C30.92 30.46 31.09 30.17 31.2 29.85C31.31 29.53 31.35 29.2 31.31 28.86L30.8 23.39Z" fill="#5B7DDE" fill-opacity="1.000000" fill-rule="nonzero"/>
	<path id="Vector" d="M21 10.5C18.58 10.5 16.62 12.48 16.62 14.92C16.62 18.3 20.41 21.57 20.57 21.71C20.69 21.82 20.84 21.87 21 21.87C21.15 21.87 21.3 21.82 21.42 21.71C21.58 21.58 25.37 18.3 25.37 14.92C25.37 12.48 23.41 10.5 21 10.5ZM21 16.62C20.55 16.6 20.12 16.41 19.81 16.08C19.5 15.75 19.33 15.32 19.33 14.87C19.33 14.42 19.5 13.99 19.81 13.66C20.12 13.34 20.55 13.14 21 13.12C21.45 13.13 21.89 13.32 22.2 13.65C22.52 13.98 22.7 14.41 22.7 14.87C22.7 15.33 22.52 15.76 22.2 16.09C21.89 16.42 21.45 16.61 21 16.62Z" fill="#95AAF1" fill-opacity="1.000000" fill-rule="nonzero"/>
</svg>
