<svg width="24.598938" height="27.983643" viewBox="0 0 24.5989 27.9836" fill="none" xmlns="http://www.w3.org/2000/svg" xmlns:xlink="http://www.w3.org/1999/xlink">
	<desc>
			Created with Pixso.
	</desc>
	<defs/>
	<path id="Vector" d="M12.47 27.98L12.21 27.98C12.21 27.97 12.2 27.97 12.19 27.96C11.47 27.8 11.14 27.39 11.14 26.65L11.14 24.66C10.63 24.95 10.15 25.23 9.67 25.51C9.37 25.68 9.05 25.77 8.7 25.68C8.21 25.55 7.91 25.23 7.82 24.74C7.71 24.22 7.94 23.75 8.39 23.48C9.26 22.98 10.12 22.48 11 21.98C11.09 21.94 11.15 21.85 11.14 21.75C11.13 19.9 11.13 18.05 11.13 16.21L11.13 16.05C11.08 16.07 11.06 16.08 11.04 16.09C9.42 17.03 7.79 17.97 6.17 18.9C6.1 18.93 6.05 19.01 6.07 19.09C6.07 20.07 6.07 21.04 6.07 22.02C6.07 22.12 6.05 22.21 6.04 22.31C5.99 22.84 5.46 23.4 4.7 23.32C4.15 23.26 3.66 22.73 3.66 22.14L3.66 20.36L3.6 20.39C3.02 20.73 2.44 21.06 1.87 21.39C1.61 21.55 1.31 21.62 1.01 21.58C0.55 21.51 0.16 21.18 0.04 20.72C-0.09 20.27 0.06 19.74 0.42 19.49C0.8 19.22 1.21 19 1.61 18.77C1.89 18.61 2.18 18.44 2.47 18.27C1.96 17.98 1.46 17.69 0.96 17.4C0.48 17.12 0.23 16.61 0.34 16.14C0.54 15.26 1.4 14.89 2.19 15.34C3.04 15.83 3.88 16.31 4.73 16.81C4.81 16.87 4.93 16.87 5.02 16.81C6.46 15.96 7.91 15.13 9.37 14.29C9.53 14.2 9.69 14.1 9.87 14L9.09 13.55C7.71 12.75 6.33 11.96 4.96 11.16C4.84 11.09 4.75 11.09 4.63 11.16C3.81 11.64 2.98 12.12 2.16 12.6C1.89 12.76 1.57 12.81 1.27 12.75C0.85 12.67 0.45 12.3 0.36 11.87C0.26 11.39 0.38 10.97 0.77 10.66C1.05 10.45 1.37 10.3 1.67 10.12C1.91 9.98 2.14 9.84 2.4 9.69C2.34 9.65 2.29 9.63 2.25 9.6C1.71 9.29 1.18 8.98 0.64 8.66C0.09 8.35 -0.12 7.65 0.16 7.11C0.45 6.53 1.12 6.26 1.7 6.53C2.04 6.68 2.36 6.89 2.68 7.08C3 7.26 3.33 7.45 3.68 7.65L3.68 5.76C3.68 5.01 4.41 4.44 5.14 4.63C5.71 4.77 6.07 5.24 6.07 5.85L6.07 8.93C6.07 9.01 6.11 9.09 6.19 9.12C7.56 9.91 8.93 10.7 10.3 11.49L11.13 11.97C11.14 11.94 11.14 11.93 11.14 11.91L11.14 6.12C11.14 6.07 11.11 6.02 11.06 5.99C10.76 5.81 10.44 5.63 10.13 5.45C9.52 5.1 8.9 4.75 8.31 4.39C7.9 4.13 7.71 3.59 7.83 3.14C8.06 2.33 8.87 1.99 9.6 2.4C9.9 2.56 10.19 2.73 10.49 2.9C10.7 3.02 10.91 3.14 11.14 3.27L11.14 1.26C11.14 0.64 11.49 0.18 12.05 0.03L12.21 0L12.47 0C12.49 0.01 12.5 0.01 12.52 0.02C13.13 0.12 13.53 0.59 13.53 1.2L13.53 3.26C13.6 3.22 13.65 3.19 13.7 3.17C14.15 2.91 14.59 2.65 15.04 2.39C15.35 2.22 15.66 2.15 16.01 2.26C16.5 2.41 16.8 2.76 16.86 3.26C16.92 3.76 16.72 4.18 16.27 4.45C15.38 4.96 14.5 5.47 13.62 5.98C13.55 6.01 13.51 6.08 13.52 6.15L13.52 11.77C13.52 11.8 13.53 11.84 13.53 11.89L13.99 11.62C15.48 10.76 16.96 9.9 18.46 9.05C18.56 9 18.62 8.89 18.61 8.78C18.6 7.82 18.6 6.85 18.61 5.89C18.61 5.69 18.64 5.5 18.7 5.31C18.9 4.81 19.48 4.51 20.02 4.61C20.54 4.7 20.96 5.16 20.98 5.7C21 6.26 20.99 6.83 20.99 7.4L20.99 7.58L21.14 7.49C21.68 7.19 22.21 6.88 22.74 6.57C22.99 6.42 23.28 6.37 23.57 6.42C24.08 6.51 24.44 6.89 24.54 7.42C24.62 7.86 24.4 8.36 23.98 8.61C23.64 8.82 23.29 9.01 22.95 9.22L22.2 9.65C22.23 9.67 22.25 9.69 22.26 9.7C22.77 9.99 23.29 10.28 23.79 10.59C24.16 10.8 24.37 11.21 24.33 11.63C24.28 12.56 23.32 13.07 22.52 12.61C21.65 12.11 20.78 11.61 19.92 11.1C19.85 11.05 19.75 11.05 19.68 11.1C18.38 11.85 17.08 12.61 15.78 13.36L14.65 14.01C14.97 14.19 15.28 14.37 15.58 14.55C16.92 15.32 18.26 16.1 19.6 16.87C19.67 16.93 19.77 16.93 19.84 16.88C20.75 16.35 21.67 15.82 22.59 15.3C22.86 15.14 23.19 15.11 23.49 15.21C24 15.37 24.28 15.74 24.33 16.26C24.38 16.73 24.17 17.1 23.78 17.36C23.51 17.53 23.22 17.69 22.93 17.86L22.13 18.32C22.17 18.35 22.19 18.36 22.21 18.38L23.96 19.38C24.36 19.62 24.59 19.97 24.59 20.44C24.6 21.35 23.62 21.92 22.82 21.49C22.44 21.28 22.08 21.06 21.71 20.85C21.48 20.71 21.24 20.58 21 20.44L21 21.92C21 22.03 20.99 22.15 20.98 22.26C20.92 22.89 20.38 23.35 19.74 23.33C19.12 23.31 18.59 22.76 18.6 22.16C18.61 21.16 18.6 20.17 18.6 19.17C18.6 19.11 18.57 19.05 18.52 19.01C18.26 18.85 17.98 18.69 17.7 18.53C16.39 17.77 15.07 17.01 13.75 16.25C13.68 16.2 13.61 16.17 13.51 16.12C13.51 18.03 13.51 19.91 13.52 21.8C13.53 21.85 13.56 21.91 13.61 21.94C14 22.17 14.38 22.39 14.78 22.61C15.3 22.92 15.84 23.22 16.35 23.54C16.84 23.86 17 24.5 16.75 25.03C16.51 25.55 15.9 25.84 15.36 25.66C15.05 25.56 14.77 25.38 14.49 25.22C14.16 25.04 13.85 24.85 13.51 24.66L13.51 26.78C13.51 27.17 13.36 27.5 13.03 27.73C12.87 27.84 12.67 27.9 12.47 27.98Z" fill="#5B7DDE" fill-opacity="1.000000" fill-rule="nonzero"/>
</svg>
