<svg width="42.000000" height="42.000000" viewBox="0 0 42 42" fill="none" xmlns="http://www.w3.org/2000/svg" xmlns:xlink="http://www.w3.org/1999/xlink">
	<desc>
			Created with Pixso.
	</desc>
	<defs/>
	<path id="Vector" d="M34.12 42L7.87 42C5.78 42 3.78 41.17 2.3 39.69C0.82 38.21 0 36.21 0 34.12L0 7.87C0 5.78 0.82 3.78 2.3 2.3C3.78 0.82 5.78 0 7.87 0L34.12 0C36.21 0 38.21 0.82 39.69 2.3C41.17 3.78 42 5.78 42 7.87L42 34.12C42 36.21 41.17 38.21 39.69 39.69C38.21 41.17 36.21 42 34.12 42Z" fill="#F4F6F8" fill-opacity="1.000000" fill-rule="nonzero"/>
	<path id="Vector" d="M31.05 12.09L26.46 10.53C26.32 10.48 26.17 10.48 26.03 10.53L21.44 12.09C21.31 12.14 21.2 12.22 21.12 12.33C21.04 12.44 20.99 12.58 21 12.71L21 16.23C21 20.52 25.78 22.61 25.99 22.69C26.07 22.73 26.16 22.75 26.25 22.75C26.33 22.75 26.42 22.73 26.5 22.69C26.71 22.61 31.5 20.52 31.5 16.23L31.5 12.71C31.5 12.58 31.45 12.44 31.37 12.33C31.29 12.22 31.18 12.14 31.05 12.09ZM29.12 15.41L26.71 18.47C26.64 18.57 26.55 18.64 26.45 18.7C26.34 18.76 26.23 18.79 26.11 18.8C26 18.81 25.88 18.8 25.76 18.77C25.65 18.73 25.55 18.67 25.46 18.6L23.93 17.28C23.84 17.21 23.77 17.12 23.72 17.02C23.66 16.91 23.63 16.8 23.62 16.69C23.61 16.57 23.63 16.46 23.66 16.35C23.7 16.24 23.76 16.14 23.83 16.05C23.91 15.96 24 15.89 24.1 15.84C24.2 15.79 24.31 15.76 24.43 15.75C24.54 15.74 24.66 15.75 24.77 15.79C24.88 15.82 24.98 15.88 25.06 15.96L25.9 16.67L27.75 14.33C27.89 14.15 28.1 14.03 28.33 14C28.56 13.97 28.79 14.04 28.97 14.18C29.16 14.33 29.27 14.54 29.3 14.77C29.33 15 29.26 15.23 29.12 15.41Z" fill="#95AAF1" fill-opacity="1.000000" fill-rule="nonzero"/>
	<path id="Vector" d="M31.5 22.96C31.5 23.8 30.8 24.5 29.96 24.5L28.86 24.5C28.85 25.41 28.6 26.31 28.15 27.11C27.69 27.9 27.03 28.57 26.25 29.04L26.25 29.96C26.25 30.8 25.55 31.5 24.71 31.5L23.84 31.5C23.43 31.49 23.04 31.33 22.76 31.04C22.47 30.76 22.31 30.37 22.31 29.96L22.31 29.74L18.81 29.74L18.81 29.96C18.81 30.8 18.12 31.5 17.28 31.5L16.4 31.5C15.56 31.5 14.87 30.8 14.87 29.96L14.87 28.75C13.68 27.96 12.82 26.75 12.45 25.37L12.03 25.37C11.19 25.37 10.5 24.68 10.5 23.84L10.5 22.53C10.5 21.69 11.19 21 12.03 21L13.24 21C13.45 20.68 13.7 20.38 13.98 20.1C14.26 19.82 14.56 19.58 14.87 19.37L14.87 16.4C14.87 16.21 14.96 16.02 15.1 15.9C15.17 15.84 15.25 15.8 15.34 15.77C15.44 15.75 15.53 15.74 15.62 15.75C17.96 16.1 18.84 17.28 19.13 18.37L19.57 18.37C20.53 21.5 23.44 23.52 25.31 24.3C25.61 24.43 25.93 24.5 26.24 24.5C26.56 24.5 26.88 24.43 27.18 24.3C27.77 24.06 28.47 23.68 29.17 23.18L29.96 23.18C30.08 23.18 30.18 23.09 30.18 22.96C30.18 22.84 30.09 22.74 29.96 22.74C29.91 22.74 29.85 22.74 29.8 22.72C30.16 22.43 30.53 22.11 30.87 21.74C31.25 22.02 31.5 22.47 31.5 22.96Z" fill="#5B7DDE" fill-opacity="1.000000" fill-rule="nonzero"/>
</svg>
