<svg width="27.995300" height="28.001587" viewBox="0 0 27.9953 28.0016" fill="none" xmlns="http://www.w3.org/2000/svg" xmlns:xlink="http://www.w3.org/1999/xlink">
	<desc>
			Created with Pixso.
	</desc>
	<defs/>
	<path id="Vector" d="M22.08 14C22.08 18.46 18.46 22.08 13.99 22.08C9.52 22.08 5.9 18.46 5.9 14C5.9 9.53 9.52 5.91 13.99 5.91C18.46 5.91 22.08 9.53 22.08 14Z" fill="#5B7DDE" fill-opacity="1.000000" fill-rule="evenodd"/>
	<path id="Vector" d="M13.7 4.49C14.42 4.68 15.16 4.11 15.15 3.37L15.15 1.15C15.16 0.41 14.42 -0.16 13.7 0.03L13.71 0.03C13.2 0.17 12.84 0.62 12.84 1.15L12.84 3.37C12.84 3.9 13.19 4.35 13.7 4.49ZM7.68 5.37C7.94 5.83 8.48 6.04 8.99 5.91C9.71 5.72 10.06 4.85 9.68 4.22L8.57 2.29C8.21 1.65 7.28 1.52 6.76 2.05C6.39 2.42 6.31 2.99 6.57 3.45L7.68 5.37ZM2.29 8.58L4.22 9.69C4.67 9.95 5.25 9.87 5.62 9.5C6.15 8.97 6.02 8.05 5.38 7.68L3.45 6.57C2.9 6.26 2.19 6.44 1.88 7C1.83 7.08 1.79 7.18 1.76 7.27C1.61 7.78 1.84 8.31 2.29 8.58ZM4.49 14.29C4.68 13.57 4.11 12.83 3.37 12.84L1.15 12.84C0.41 12.83 -0.16 13.57 0.03 14.29C0.17 14.79 0.62 15.15 1.15 15.15L3.37 15.15C3.89 15.15 4.35 14.79 4.49 14.29ZM5.9 19.01C5.72 18.28 4.85 17.93 4.21 18.31L2.29 19.42C1.74 19.74 1.55 20.44 1.87 21C1.92 21.08 1.98 21.16 2.05 21.23C2.41 21.6 2.99 21.68 3.45 21.42L5.37 20.31C5.83 20.05 6.04 19.51 5.9 19.01ZM9.49 22.37C9.42 22.3 9.34 22.24 9.25 22.19C8.7 21.88 8 22.06 7.68 22.61L6.57 24.54C6.25 25.09 6.44 25.8 7 26.11C7.08 26.16 7.18 26.2 7.27 26.23C7.77 26.37 8.31 26.15 8.58 25.69L9.69 23.77C9.94 23.32 9.87 22.75 9.49 22.37ZM14.28 23.51C13.56 23.31 12.82 23.88 12.83 24.62L12.83 26.84C12.82 27.58 13.56 28.15 14.28 27.96C14.79 27.83 15.14 27.37 15.14 26.84L15.14 24.62C15.14 24.1 14.79 23.64 14.28 23.51ZM20.3 22.62C20.04 22.17 19.5 21.95 18.99 22.08C18.9 22.11 18.81 22.15 18.72 22.2C18.17 22.52 17.98 23.22 18.3 23.77L19.41 25.7C19.73 26.25 20.44 26.44 20.99 26.12C21.08 26.07 21.15 26.01 21.23 25.94C21.6 25.57 21.68 25 21.42 24.54L20.3 22.62ZM25.69 19.42L23.77 18.31C23.31 18.04 22.74 18.12 22.37 18.5C21.84 19.02 21.96 19.95 22.61 20.31L24.53 21.42C25.09 21.73 25.79 21.54 26.11 20.99C26.16 20.9 26.2 20.81 26.22 20.72C26.37 20.22 26.15 19.68 25.69 19.42ZM27.99 14C27.99 13.9 27.97 13.8 27.95 13.71L27.95 13.71C27.82 13.2 27.36 12.85 26.84 12.85L24.62 12.85C24.09 12.85 23.63 13.2 23.5 13.71C23.3 14.43 23.88 15.17 24.62 15.16L26.84 15.16C27.48 15.16 27.99 14.64 27.99 14ZM22.08 8.99C22.26 9.71 23.13 10.06 23.77 9.68L25.69 8.57C26.25 8.25 26.43 7.54 26.11 6.99C26.07 6.9 26.01 6.83 25.93 6.76L25.93 6.76C25.57 6.39 24.99 6.31 24.53 6.57L22.61 7.68C22.16 7.95 21.94 8.48 22.08 8.99ZM18.49 5.62C19.02 6.15 19.94 6.02 20.3 5.38L21.41 3.45C21.79 2.82 21.44 1.95 20.72 1.76C20.21 1.63 19.67 1.84 19.41 2.3L18.3 4.22C18.04 4.67 18.12 5.25 18.49 5.62Z" fill="#5B7DDE" fill-opacity="1.000000" fill-rule="nonzero"/>
</svg>
