<svg width="15.000000" height="15.000000" viewBox="0 0 15 15" fill="none" xmlns="http://www.w3.org/2000/svg" xmlns:xlink="http://www.w3.org/1999/xlink">
	<desc>
			Created with Pixso.
	</desc>
	<defs/>
	<path id="Vector" d="M2.5 0C1.83 0 1.2 0.26 0.73 0.73C0.26 1.2 0 1.83 0 2.5L0 4.5C0 10.29 4.7 15 10.5 15L12.5 15C13.16 15 13.79 14.73 14.26 14.26C14.73 13.79 15 13.16 15 12.5L15 11.11C15 10.83 14.92 10.56 14.77 10.32C14.62 10.09 14.41 9.9 14.17 9.77L11.75 8.56C11.56 8.47 11.35 8.41 11.13 8.41C10.92 8.4 10.7 8.44 10.5 8.52C10.31 8.6 10.13 8.73 9.98 8.88C9.83 9.04 9.72 9.23 9.66 9.43L9.36 10.32C9.3 10.49 9.19 10.63 9.04 10.71C8.89 10.8 8.72 10.83 8.55 10.8C7.47 10.58 6.49 10.05 5.71 9.28C4.94 8.5 4.41 7.52 4.19 6.45C4.16 6.28 4.19 6.1 4.28 5.95C4.36 5.8 4.5 5.69 4.67 5.63L5.78 5.26C6.13 5.14 6.43 4.89 6.62 4.56C6.8 4.23 6.85 3.84 6.76 3.48L6.17 1.13C6.09 0.81 5.9 0.52 5.64 0.31C5.37 0.11 5.05 0 4.71 0L2.5 0Z" fill="#5B7DDE" fill-opacity="1.000000" fill-rule="nonzero"/>
</svg>
